<mxfile host="65bd71144e">
    <diagram name="PÃ¡gina-1" id="2dwx4LYqXVP7C5pGC-Pw">
        <mxGraphModel dx="846" dy="451" grid="1" gridSize="10" guides="1" tooltips="1" connect="1" arrows="1" fold="1" page="1" pageScale="1" pageWidth="827" pageHeight="1169" math="0" shadow="0">
            <root>
                <mxCell id="0"/>
                <mxCell id="1" parent="0"/>
                <mxCell id="Kn4S4SdoonWtt_PLOv4M-4" style="edgeStyle=orthogonalEdgeStyle;rounded=0;orthogonalLoop=1;jettySize=auto;html=1;exitX=1;exitY=0.5;exitDx=0;exitDy=0;entryX=0.1;entryY=0.5;entryDx=0;entryDy=0;entryPerimeter=0;" parent="1" source="Kn4S4SdoonWtt_PLOv4M-1" target="Kn4S4SdoonWtt_PLOv4M-5" edge="1">
                    <mxGeometry relative="1" as="geometry">
                        <mxPoint x="270" y="275" as="targetPoint"/>
                    </mxGeometry>
                </mxCell>
                <mxCell id="Kn4S4SdoonWtt_PLOv4M-18" style="edgeStyle=orthogonalEdgeStyle;rounded=0;orthogonalLoop=1;jettySize=auto;html=1;exitX=0.5;exitY=0;exitDx=0;exitDy=0;entryX=0.5;entryY=0;entryDx=0;entryDy=0;" parent="1" source="Kn4S4SdoonWtt_PLOv4M-1" target="Kn4S4SdoonWtt_PLOv4M-14" edge="1">
                    <mxGeometry relative="1" as="geometry">
                        <Array as="points">
                            <mxPoint x="110" y="40"/>
                            <mxPoint x="650" y="40"/>
                        </Array>
                    </mxGeometry>
                </mxCell>
                <mxCell id="Kn4S4SdoonWtt_PLOv4M-1" value="Streamlit" style="rounded=1;whiteSpace=wrap;html=1;" parent="1" vertex="1">
                    <mxGeometry x="50" y="245" width="120" height="60" as="geometry"/>
                </mxCell>
                <mxCell id="Kn4S4SdoonWtt_PLOv4M-5" value="" style="shape=curlyBracket;whiteSpace=wrap;html=1;rounded=1;labelPosition=left;verticalLabelPosition=middle;align=right;verticalAlign=middle;" parent="1" vertex="1">
                    <mxGeometry x="290" y="110" width="20" height="330" as="geometry"/>
                </mxCell>
                <mxCell id="Kn4S4SdoonWtt_PLOv4M-6" value="OpenAISeeker" style="rounded=1;whiteSpace=wrap;html=1;" parent="1" vertex="1">
                    <mxGeometry x="330" y="120" width="120" height="60" as="geometry"/>
                </mxCell>
                <mxCell id="Kn4S4SdoonWtt_PLOv4M-7" value="LinkedinSeeker" style="rounded=1;whiteSpace=wrap;html=1;" parent="1" vertex="1">
                    <mxGeometry x="330" y="200" width="120" height="60" as="geometry"/>
                </mxCell>
                <mxCell id="Kn4S4SdoonWtt_PLOv4M-8" value="&lt;b&gt;&lt;font style=&quot;font-size: 20px;&quot;&gt;...&lt;/font&gt;&lt;/b&gt;" style="text;html=1;align=center;verticalAlign=middle;resizable=0;points=[];autosize=1;strokeColor=none;fillColor=none;" parent="1" vertex="1">
                    <mxGeometry x="370" y="290" width="40" height="40" as="geometry"/>
                </mxCell>
                <mxCell id="Kn4S4SdoonWtt_PLOv4M-9" value="CustomSeeker" style="rounded=1;whiteSpace=wrap;html=1;" parent="1" vertex="1">
                    <mxGeometry x="330" y="360" width="120" height="60" as="geometry"/>
                </mxCell>
                <mxCell id="Kn4S4SdoonWtt_PLOv4M-10" value="" style="shape=curlyBracket;whiteSpace=wrap;html=1;rounded=1;labelPosition=left;verticalLabelPosition=middle;align=right;verticalAlign=middle;size=0.5;direction=west;" parent="1" vertex="1">
                    <mxGeometry x="470" y="110" width="20" height="330" as="geometry"/>
                </mxCell>
                <mxCell id="Kn4S4SdoonWtt_PLOv4M-11" value="" style="endArrow=classic;html=1;rounded=0;exitX=0.1;exitY=0.5;exitDx=0;exitDy=0;exitPerimeter=0;entryX=0;entryY=0.5;entryDx=0;entryDy=0;" parent="1" source="Kn4S4SdoonWtt_PLOv4M-10" target="Kn4S4SdoonWtt_PLOv4M-14" edge="1">
                    <mxGeometry width="50" height="50" relative="1" as="geometry">
                        <mxPoint x="500" y="274.5" as="sourcePoint"/>
                        <mxPoint x="570" y="275" as="targetPoint"/>
                    </mxGeometry>
                </mxCell>
                <mxCell id="Kn4S4SdoonWtt_PLOv4M-12" value="" style="shape=curlyBracket;whiteSpace=wrap;html=1;rounded=1;labelPosition=left;verticalLabelPosition=middle;align=right;verticalAlign=middle;direction=south;" parent="1" vertex="1">
                    <mxGeometry x="330" y="84" width="120" height="20" as="geometry"/>
                </mxCell>
                <mxCell id="Kn4S4SdoonWtt_PLOv4M-13" value="&lt;b&gt;JobSeekers&lt;/b&gt;" style="text;html=1;align=center;verticalAlign=middle;resizable=0;points=[];autosize=1;strokeColor=none;fillColor=none;" parent="1" vertex="1">
                    <mxGeometry x="345" y="60" width="90" height="30" as="geometry"/>
                </mxCell>
                <mxCell id="Kn4S4SdoonWtt_PLOv4M-15" style="edgeStyle=orthogonalEdgeStyle;rounded=0;orthogonalLoop=1;jettySize=auto;html=1;exitX=0.5;exitY=1;exitDx=0;exitDy=0;entryX=0.5;entryY=1;entryDx=0;entryDy=0;" parent="1" source="Kn4S4SdoonWtt_PLOv4M-14" target="Kn4S4SdoonWtt_PLOv4M-1" edge="1">
                    <mxGeometry relative="1" as="geometry">
                        <Array as="points">
                            <mxPoint x="650" y="490"/>
                            <mxPoint x="110" y="490"/>
                        </Array>
                    </mxGeometry>
                </mxCell>
                <mxCell id="Kn4S4SdoonWtt_PLOv4M-14" value="Process skills" style="rounded=1;whiteSpace=wrap;html=1;" parent="1" vertex="1">
                    <mxGeometry x="590" y="245" width="120" height="60" as="geometry"/>
                </mxCell>
                <mxCell id="Kn4S4SdoonWtt_PLOv4M-16" value="List of job offers" style="text;html=1;align=center;verticalAlign=middle;resizable=0;points=[];autosize=1;strokeColor=none;fillColor=none;" parent="1" vertex="1">
                    <mxGeometry x="180" y="240" width="110" height="30" as="geometry"/>
                </mxCell>
                <mxCell id="Kn4S4SdoonWtt_PLOv4M-17" value="Job descriptions" style="text;html=1;align=center;verticalAlign=middle;resizable=0;points=[];autosize=1;strokeColor=none;fillColor=none;" parent="1" vertex="1">
                    <mxGeometry x="480" y="240" width="110" height="30" as="geometry"/>
                </mxCell>
                <mxCell id="Kn4S4SdoonWtt_PLOv4M-19" value="Predefined skills" style="text;html=1;align=center;verticalAlign=middle;resizable=0;points=[];autosize=1;strokeColor=none;fillColor=none;" parent="1" vertex="1">
                    <mxGeometry x="335" y="8" width="110" height="30" as="geometry"/>
                </mxCell>
                <mxCell id="Kn4S4SdoonWtt_PLOv4M-20" value="Matched skills" style="text;html=1;align=center;verticalAlign=middle;resizable=0;points=[];autosize=1;strokeColor=none;fillColor=none;" parent="1" vertex="1">
                    <mxGeometry x="340" y="460" width="100" height="30" as="geometry"/>
                </mxCell>
                <mxCell id="2" value="" style="whiteSpace=wrap;html=1;" vertex="1" parent="1">
                    <mxGeometry x="350" y="200" width="120" height="60" as="geometry"/>
                </mxCell>
            </root>
        </mxGraphModel>
    </diagram>
</mxfile>